<svg aria-hidden="true" style="position: absolute; width: 0; height: 0; overflow: hidden;" version="1.1" xmlns="http://www.w3.org/2000/svg" xmlns:xlink="http://www.w3.org/1999/xlink">
<defs>
<symbol id="icon-hamburger" viewBox="0 0 32 32">
<path fill="#ae1332" style="fill: var(--color1, #ae1332)" d="M2.667 7.993c0-0.733 0.595-1.327 1.327-1.327h10.68c0.352 0 0.689 0.14 0.938 0.389s0.389 0.586 0.389 0.938c0 0.352-0.14 0.689-0.389 0.938s-0.586 0.389-0.938 0.389h-10.68c-0.352 0-0.689-0.14-0.938-0.389s-0.389-0.586-0.389-0.938zM2.667 16c0-0.733 0.595-1.327 1.327-1.327h24.013c0.352 0 0.689 0.14 0.938 0.389s0.389 0.586 0.389 0.938c0 0.352-0.14 0.689-0.389 0.938s-0.586 0.389-0.938 0.389h-24.013c-0.352 0-0.689-0.14-0.938-0.389s-0.389-0.586-0.389-0.938zM3.993 22.68c-0.352 0-0.689 0.14-0.938 0.389s-0.389 0.586-0.389 0.938c0 0.352 0.14 0.689 0.389 0.938s0.586 0.389 0.938 0.389h16.013c0.352 0 0.689-0.14 0.938-0.389s0.389-0.586 0.389-0.938c0-0.352-0.14-0.689-0.389-0.938s-0.586-0.389-0.938-0.389h-16.013z"></path>
</symbol>
<symbol id="icon-logo" viewBox="0 0 277 32">
<path fill="#ae1332" style="fill: var(--color1, #ae1332)" d="M25.851 2.057h-3.564c-1.1 0-1.991 0.874-1.991 1.951v3.493c0 1.078 0.892 1.951 1.991 1.951h3.564c1.1 0 1.991-0.874 1.991-1.951v-3.493c0-1.078-0.892-1.951-1.991-1.951z"></path>
<path fill="#ae1332" style="fill: var(--color1, #ae1332)" d="M5.983 22.258h-3.838c-1.184 0-2.144 0.874-2.144 1.951v3.493c0 1.078 0.96 1.951 2.144 1.951h3.838c1.184 0 2.144-0.874 2.144-1.951v-3.493c0-1.078-0.96-1.951-2.144-1.951z"></path>
<path fill="#ae1332" style="fill: var(--color1, #ae1332)" d="M5.555 12.073h-3.564c-1.1 0-1.991 0.874-1.991 1.951v3.493c0 1.078 0.892 1.951 1.991 1.951h3.564c1.1 0 1.991-0.874 1.991-1.951v-3.493c0-1.078-0.892-1.951-1.991-1.951z"></path>
<path fill="#ae1332" style="fill: var(--color1, #ae1332)" d="M15.792 22.203h-3.564c-1.1 0-1.991 0.874-1.991 1.951l-0 3.493c0 1.078 0.892 1.951 1.992 1.951h3.564c1.1 0 1.991-0.874 1.991-1.951v-3.493c0-1.078-0.892-1.951-1.991-1.951z"></path>
<path fill="#ae1332" style="fill: var(--color1, #ae1332)" d="M5.555 1.854h-3.564c-1.1 0-1.991 0.874-1.991 1.951v3.493c0 1.078 0.892 1.951 1.991 1.951h3.564c1.1 0 1.991-0.874 1.991-1.951v-3.493c0-1.078-0.892-1.951-1.991-1.951z"></path>
<path fill="#ae1332" style="fill: var(--color1, #ae1332)" d="M16.067 12.176h-3.564c-1.1 0-1.991 0.874-1.991 1.951v3.493c0 1.078 0.892 1.951 1.991 1.951h3.564c1.1 0 1.991-0.874 1.991-1.951v-3.493c0-1.078-0.891-1.951-1.991-1.951z"></path>
<path fill="#ae1332" style="fill: var(--color1, #ae1332)" d="M26.074 22.203h-3.564c-1.1 0-1.991 0.874-1.991 1.951v3.493c0 1.078 0.892 1.951 1.991 1.951h3.564c1.1 0 1.991-0.874 1.991-1.951v-3.493c0-1.078-0.892-1.951-1.991-1.951z"></path>
<path fill="#ae1332" style="fill: var(--color1, #ae1332)" d="M15.636 1.977h-3.564c-1.1 0-1.991 0.874-1.991 1.951v3.493c0 1.078 0.892 1.951 1.991 1.951h3.564c1.1 0 1.991-0.874 1.991-1.952v-3.492c0-1.078-0.892-1.951-1.991-1.951z"></path>
<path fill="#ae1332" style="fill: var(--color1, #ae1332)" d="M25.817 12.379h-3.564c-1.1 0-1.991 0.874-1.991 1.951v3.493c0 1.078 0.892 1.951 1.991 1.951h3.564c1.1 0 1.991-0.874 1.991-1.951v-3.493c0-1.078-0.892-1.951-1.991-1.951z"></path>
<path fill="#ae1332" style="fill: var(--color1, #ae1332)" d="M44.921 24.889v-17.422h11.25v2.564h-8.064v4.878h6.521v2.514h-6.521v7.467h-3.186zM57.634 24.889v-17.422h6.396c1.394 0 2.539 0.241 3.435 0.722 0.913 0.465 1.593 1.103 2.041 1.916 0.448 0.796 0.672 1.684 0.672 2.663 0 1.062-0.282 2.033-0.846 2.912-0.548 0.879-1.41 1.518-2.588 1.916l3.609 7.292h-3.659l-3.236-6.869h-2.638v6.869h-3.186zM60.819 15.68h3.012c1.062 0 1.842-0.257 2.34-0.772s0.747-1.195 0.747-2.041c0-0.83-0.249-1.493-0.747-1.991-0.481-0.498-1.269-0.747-2.364-0.747h-2.987v5.55zM72.145 24.889v-17.422h11.374v2.564h-8.188v4.779h7.442v2.489h-7.442v5.028h8.188v2.564h-11.374zM91.487 25.188c-1.278 0-2.406-0.216-3.385-0.647-0.979-0.448-1.751-1.079-2.315-1.892-0.564-0.83-0.855-1.833-0.871-3.012h3.36c0.033 0.813 0.324 1.502 0.871 2.066 0.564 0.548 1.336 0.821 2.315 0.821 0.846 0 1.518-0.199 2.016-0.597 0.498-0.415 0.747-0.962 0.747-1.643 0-0.713-0.224-1.269-0.672-1.668-0.431-0.398-1.012-0.722-1.742-0.971s-1.51-0.514-2.34-0.796c-1.344-0.465-2.373-1.062-3.086-1.792-0.697-0.73-1.045-1.701-1.045-2.912-0.017-1.029 0.224-1.908 0.722-2.638 0.514-0.747 1.211-1.319 2.091-1.717 0.879-0.415 1.892-0.622 3.036-0.622 1.161 0 2.182 0.207 3.061 0.622 0.896 0.415 1.593 0.996 2.091 1.742 0.514 0.747 0.788 1.634 0.821 2.663h-3.41c-0.017-0.614-0.257-1.153-0.722-1.618-0.448-0.481-1.079-0.722-1.892-0.722-0.697-0.017-1.286 0.158-1.767 0.523-0.465 0.348-0.697 0.863-0.697 1.543 0 0.581 0.183 1.045 0.548 1.394 0.365 0.332 0.863 0.614 1.493 0.846s1.352 0.481 2.165 0.747c0.863 0.299 1.651 0.647 2.364 1.045s1.286 0.929 1.717 1.593c0.431 0.647 0.647 1.485 0.647 2.514 0 0.913-0.232 1.759-0.697 2.539s-1.153 1.41-2.066 1.892c-0.913 0.465-2.033 0.697-3.36 0.697zM99.393 24.889v-17.422h3.186v7.243h7.815v-7.243h3.186v17.422h-3.186v-7.591h-7.815v7.591h-3.186zM120.906 24.889v-17.422h3.186v7.243h7.815v-7.243h3.186v17.422h-3.186v-7.591h-7.815v7.591h-3.186zM136.363 24.889l6.372-17.422h3.584l6.372 17.422h-3.385l-1.394-4.032h-6.795l-1.419 4.032h-3.335zM141.988 18.368h5.052l-2.539-7.243-2.514 7.243zM153.939 24.889v-17.422h6.396c1.394 0 2.539 0.241 3.435 0.722 0.913 0.465 1.593 1.103 2.041 1.916 0.448 0.796 0.672 1.684 0.672 2.663 0 1.062-0.282 2.033-0.846 2.912-0.548 0.879-1.411 1.518-2.588 1.916l3.609 7.292h-3.659l-3.236-6.869h-2.638v6.869h-3.186zM157.125 15.68h3.012c1.062 0 1.842-0.257 2.34-0.772s0.747-1.195 0.747-2.041c0-0.83-0.249-1.493-0.747-1.991-0.481-0.498-1.269-0.747-2.364-0.747h-2.987v5.55zM172.895 24.889l-6.372-17.422h3.41l4.928 14.162 4.954-14.162h3.36l-6.372 17.422h-3.908zM184.251 24.889v-17.422h11.374v2.564h-8.188v4.779h7.442v2.489h-7.442v5.028h8.188v2.564h-11.374zM203.591 25.188c-1.276 0-2.405-0.216-3.385-0.647-0.978-0.448-1.749-1.079-2.315-1.892-0.564-0.83-0.853-1.833-0.871-3.012h3.36c0.034 0.813 0.324 1.502 0.871 2.066 0.565 0.548 1.337 0.821 2.315 0.821 0.846 0 1.518-0.199 2.016-0.597 0.498-0.415 0.747-0.962 0.747-1.643 0-0.713-0.224-1.269-0.672-1.668-0.43-0.398-1.012-0.722-1.742-0.971-0.729-0.249-1.509-0.514-2.34-0.796-1.344-0.465-2.372-1.062-3.086-1.792-0.697-0.73-1.045-1.701-1.045-2.912-0.016-1.029 0.224-1.908 0.722-2.638 0.516-0.747 1.212-1.319 2.091-1.717 0.88-0.415 1.892-0.622 3.036-0.622 1.163 0 2.183 0.207 3.061 0.622 0.896 0.415 1.593 0.996 2.091 1.742 0.516 0.747 0.789 1.634 0.821 2.663h-3.41c-0.016-0.614-0.256-1.153-0.722-1.618-0.448-0.481-1.077-0.722-1.892-0.722-0.697-0.017-1.285 0.158-1.767 0.523-0.464 0.348-0.697 0.863-0.697 1.543 0 0.581 0.183 1.045 0.548 1.394 0.366 0.332 0.864 0.614 1.493 0.846 0.631 0.232 1.353 0.481 2.165 0.747 0.864 0.299 1.652 0.647 2.364 1.045 0.715 0.398 1.287 0.929 1.717 1.593 0.432 0.647 0.647 1.485 0.647 2.514 0 0.913-0.231 1.759-0.697 2.539-0.464 0.78-1.152 1.41-2.066 1.892-0.912 0.465-2.032 0.697-3.36 0.697zM215.337 24.889v-14.859h-5.077v-2.564h13.365v2.564h-5.102v14.859h-3.186zM229.924 24.889v-17.422h6.994c1.81 0 3.186 0.423 4.132 1.269 0.964 0.83 1.444 1.9 1.444 3.211 0 1.095-0.299 1.975-0.896 2.638-0.58 0.647-1.294 1.087-2.14 1.319 0.996 0.199 1.817 0.697 2.464 1.493 0.647 0.78 0.971 1.692 0.971 2.738 0 1.377-0.498 2.514-1.493 3.41s-2.405 1.344-4.231 1.344h-7.243zM233.109 14.784h3.335c0.896 0 1.586-0.207 2.066-0.622 0.482-0.415 0.722-1.004 0.722-1.767 0-0.73-0.24-1.303-0.722-1.717-0.464-0.431-1.17-0.647-2.116-0.647h-3.285v4.754zM233.109 22.3h3.559c0.946 0 1.676-0.216 2.19-0.647 0.532-0.448 0.796-1.070 0.796-1.867 0-0.813-0.274-1.452-0.821-1.916s-1.285-0.697-2.215-0.697h-3.509v5.127zM252.793 25.188c-1.742 0-3.268-0.382-4.58-1.145-1.294-0.763-2.315-1.817-3.061-3.161-0.729-1.361-1.095-2.929-1.095-4.704s0.366-3.335 1.095-4.679c0.747-1.361 1.767-2.423 3.061-3.186 1.312-0.763 2.837-1.145 4.58-1.145 1.726 0 3.244 0.382 4.555 1.145 1.312 0.763 2.332 1.825 3.061 3.186 0.731 1.344 1.095 2.904 1.095 4.679s-0.364 3.343-1.095 4.704c-0.729 1.344-1.749 2.398-3.061 3.161-1.31 0.763-2.828 1.145-4.555 1.145zM252.793 22.325c1.66 0 2.98-0.548 3.957-1.643 0.996-1.095 1.493-2.597 1.493-4.505s-0.498-3.41-1.493-4.505c-0.978-1.095-2.297-1.643-3.957-1.643-1.659 0-2.987 0.548-3.982 1.643s-1.493 2.597-1.493 4.505c0 1.908 0.498 3.41 1.493 4.505s2.324 1.643 3.982 1.643zM261.212 24.889l5.451-8.811-5.525-8.612h3.659l3.908 6.073 3.584-6.073h3.584l-5.451 8.761 5.575 8.661h-3.659l-3.957-6.148-3.584 6.148h-3.584z"></path>
</symbol>
<symbol id="icon-youtube" viewBox="0 0 32 32">
<path stroke-linejoin="miter" stroke-linecap="butt" stroke-miterlimit="4" stroke-width="0.7273" d="M7.273 0.364h17.455c3.816 0 6.909 3.093 6.909 6.909v17.455c0 3.816-3.093 6.909-6.909 6.909h-17.455c-3.816 0-6.909-3.093-6.909-6.909v-17.455c0-3.816 3.093-6.909 6.909-6.909z"></path>
<path d="M21.244 9.636c-0.865-0.051-2.647-0.102-5.345-0.102h-0.356c-2.596 0-4.327 0.051-5.193 0.153-1.171 0.102-1.985 0.407-2.444 0.815-0.407 0.356-0.713 1.018-0.815 1.884-0.051 0.56-0.102 1.731-0.102 3.513v0.255c0 1.68 0.051 2.851 0.153 3.411 0.153 0.815 0.407 1.425 0.916 1.782 0.509 0.407 1.375 0.662 2.596 0.764 0.865 0.051 2.647 0.102 5.345 0.102h0.356c2.596 0 4.327-0.051 5.193-0.153 1.171-0.102 1.985-0.407 2.444-0.815 0.407-0.356 0.713-1.018 0.815-1.884 0.051-0.56 0.102-1.731 0.102-3.513v-0.255c0-1.68-0.051-2.851-0.153-3.411-0.153-0.815-0.407-1.425-0.916-1.782-0.509-0.407-1.375-0.662-2.596-0.764zM19.258 15.898l-5.6 3.36v-6.72l5.6 3.36z"></path>
</symbol>
<symbol id="icon-instagram" viewBox="0 0 32 32">
<path stroke-linejoin="miter" stroke-linecap="butt" stroke-miterlimit="4" stroke-width="0.7273" d="M7.273 0.364h17.455c3.816 0 6.909 3.093 6.909 6.909v17.455c0 3.816-3.093 6.909-6.909 6.909h-17.455c-3.816 0-6.909-3.093-6.909-6.909v-17.455c0-3.816 3.093-6.909 6.909-6.909z"></path>
<path d="M24.093 12.663c-0.010-0.684-0.137-1.362-0.379-2.001-0.424-1.092-1.288-1.955-2.382-2.378-0.632-0.238-1.301-0.365-1.978-0.379-0.87-0.039-1.146-0.050-3.355-0.050s-2.492 0-3.356 0.050c-0.676 0.014-1.344 0.142-1.977 0.379-1.094 0.423-1.959 1.286-2.382 2.378-0.238 0.631-0.366 1.299-0.379 1.973-0.039 0.87-0.051 1.145-0.051 3.351s0 2.487 0.051 3.351c0.014 0.676 0.141 1.342 0.379 1.975 0.424 1.091 1.288 1.954 2.383 2.377 0.63 0.246 1.298 0.385 1.977 0.406 0.871 0.039 1.147 0.051 3.356 0.051s2.492 0 3.356-0.051c0.676-0.014 1.344-0.141 1.978-0.378 1.094-0.424 1.958-1.287 2.382-2.378 0.238-0.632 0.365-1.299 0.379-1.975 0.039-0.869 0.051-1.144 0.051-3.351-0.002-2.205-0.002-2.485-0.052-3.35zM15.994 20.156c-2.31 0-4.182-1.869-4.182-4.175s1.872-4.175 4.182-4.175c2.309 0 4.182 1.869 4.182 4.175s-1.874 4.175-4.182 4.175zM20.342 12.625c-0.54 0-0.975-0.435-0.975-0.974s0.435-0.974 0.975-0.974c0.538 0 0.974 0.435 0.974 0.974s-0.436 0.974-0.974 0.974z"></path>
<path d="M15.995 18.53c1.407 0 2.548-1.141 2.548-2.548s-1.141-2.548-2.548-2.548c-1.407 0-2.548 1.141-2.548 2.548s1.141 2.548 2.548 2.548z"></path>
</symbol>
<symbol id="icon-facebook" viewBox="0 0 32 32">
<path stroke-linejoin="miter" stroke-linecap="butt" stroke-miterlimit="4" stroke-width="0.7273" d="M7.273 0.364h17.455c3.816 0 6.909 3.093 6.909 6.909v17.455c0 3.816-3.093 6.909-6.909 6.909h-17.455c-3.816 0-6.909-3.093-6.909-6.909v-17.455c0-3.816 3.093-6.909 6.909-6.909z"></path>
<path d="M18.24 8.771c0.153 0 0.305 0 0.611 0v2.291c-0.153 0-0.458 0-0.764 0s-0.611 0-0.764 0.153c-0.153 0.153-0.153 0.305-0.153 0.662 0 0.305 0 0.509 0 0.815h1.68v1.935h-1.68v8.4h-2.596v-8.451h-1.375v-1.935h1.375v-0.662c0-1.12 0.153-1.935 0.458-2.291 0.458-0.662 1.375-0.967 2.749-0.967 0.153 0.051 0.305 0.051 0.458 0.051z"></path>
</symbol>
<symbol id="icon-Vector" viewBox="0 0 32 32">
<path d="M32 4.741l-4.741-4.741v23.704l-23.704-23.704-3.556 3.556 23.704 23.704h-23.704l4.741 4.741h27.259v-27.259z"></path>
</symbol>
<symbol id="icon-cart" viewBox="0 0 32 32">
<path d="M25.333 9.333h-4v-1.333c0-1.415-0.562-2.771-1.562-3.771s-2.357-1.562-3.771-1.562c-1.414 0-2.771 0.562-3.771 1.562s-1.562 2.357-1.562 3.771v1.333h-4c-0.354 0-0.693 0.14-0.943 0.39s-0.391 0.589-0.391 0.943v14.667c0 1.061 0.421 2.078 1.172 2.828s1.768 1.172 2.828 1.172h13.333c1.061 0 2.078-0.422 2.828-1.172s1.172-1.768 1.172-2.828v-14.667c0-0.354-0.141-0.693-0.39-0.943s-0.589-0.39-0.943-0.39zM13.333 8c0-0.707 0.281-1.386 0.781-1.886s1.178-0.781 1.886-0.781c0.707 0 1.386 0.281 1.886 0.781s0.781 1.178 0.781 1.886v1.333h-5.333v-1.333zM24 25.333c0 0.354-0.14 0.693-0.39 0.943s-0.589 0.391-0.943 0.391h-13.333c-0.354 0-0.693-0.141-0.943-0.391s-0.391-0.589-0.391-0.943v-13.333h2.667v1.333c0 0.354 0.14 0.693 0.391 0.943s0.589 0.391 0.943 0.391c0.354 0 0.693-0.141 0.943-0.391s0.39-0.589 0.39-0.943v-1.333h5.333v1.333c0 0.354 0.14 0.693 0.39 0.943s0.589 0.391 0.943 0.391 0.693-0.141 0.943-0.391c0.25-0.25 0.39-0.589 0.39-0.943v-1.333h2.667v13.333z"></path>
</symbol>
<symbol id="icon-x" viewBox="0 0 32 32">
<path stroke-linejoin="round" stroke-linecap="round" stroke-miterlimit="4" stroke-width="2.6667" d="M24 8l-16 16"></path>
<path stroke-linejoin="round" stroke-linecap="round" stroke-miterlimit="4" stroke-width="2.6667" d="M8 8l16 16"></path>
</symbol>
<symbol id="icon-order-arrow" viewBox="0 0 30 32">
<path d="M29.867 4.588l-4.425-4.425v22.123l-22.123-22.123-3.319 3.319 22.124 22.123h-22.124l4.425 4.425h25.442v-25.442z"></path>
</symbol>
</defs>
</svg>
